<svg xmlns="http://www.w3.org/2000/svg" xmlns:xlink="http://www.w3.org/1999/xlink" width="1920" zoomAndPan="magnify" viewBox="0 0 1440 809.999993" height="1080" preserveAspectRatio="xMidYMid meet" version="1.0"><defs><clipPath id="5e6a58d8ed"><path d="M 61 0 L 1440 0 L 1440 810 L 61 810 Z M 61 0 " clip-rule="nonzero"/></clipPath><clipPath id="bbe9e01782"><path d="M 62.199219 805.207031 C 66.710938 789.300781 69.457031 781.296875 72.246094 774.988281 C 74.917969 768.945312 78.515625 763.296875 81.253906 757.753906 C 83.753906 752.699219 85.710938 748.140625 88.074219 743.09375 C 90.601562 737.691406 93.261719 732 95.984375 726.359375 C 98.789062 720.546875 101.511719 714 104.65625 708.734375 C 107.4375 704.078125 110.773438 700.386719 113.585938 696.203125 C 116.308594 692.152344 118.523438 688.410156 121.304688 684.046875 C 124.558594 678.945312 128.046875 672.945312 131.917969 667.484375 C 135.960938 661.785156 140.789062 656.191406 145.140625 650.574219 C 149.429688 645.03125 153.238281 639.683594 157.84375 634.011719 C 162.929688 627.742188 168.808594 620.804688 174.457031 614.65625 C 179.917969 608.714844 185.902344 603.238281 191.144531 597.691406 C 196.011719 592.546875 200.316406 587.421875 204.921875 582.523438 C 209.378906 577.785156 214.078125 573.253906 218.324219 568.753906 C 222.292969 564.554688 225.808594 560.445312 229.636719 556.378906 C 233.445312 552.324219 236.933594 548.347656 241.230469 544.394531 C 246 540.015625 252.195312 535.449219 257.136719 531.421875 C 261.441406 527.910156 264.988281 525.074219 269.242188 521.578125 C 274.019531 517.648438 279 512.976562 284.390625 508.980469 C 290.039062 504.789062 296.378906 501.039062 302.453125 497.070312 C 308.601562 493.050781 314.378906 489.097656 321.066406 485.015625 C 328.613281 480.421875 338.753906 474.757812 345.53125 470.984375 C 350.300781 468.328125 353.632812 466.546875 357.808594 464.355469 C 362.109375 462.105469 366.496094 459.765625 370.980469 457.671875 C 375.511719 455.558594 380.300781 453.816406 384.847656 451.738281 C 389.347656 449.675781 393.015625 447.765625 398.128906 445.261719 C 405.140625 441.824219 415.628906 436.273438 423.050781 433.003906 C 428.859375 430.449219 433.808594 428.941406 438.863281 426.824219 C 443.601562 424.835938 447.808594 422.648438 452.511719 420.703125 C 457.417969 418.679688 462.488281 416.625 467.730469 414.9375 C 473.144531 413.191406 479.242188 412.011719 484.507812 410.445312 C 489.261719 409.035156 493.605469 407.683594 497.96875 406.042969 C 502.238281 404.4375 506.101562 402.359375 510.425781 400.726562 C 514.980469 399 519.96875 397.453125 524.671875 396 C 529.238281 394.589844 533.160156 393.609375 538.246094 392.09375 C 544.808594 390.136719 553.550781 387.203125 560.738281 385.148438 C 567.269531 383.28125 573.578125 381.335938 579.554688 380.183594 C 584.859375 379.15625 589.792969 378.71875 594.765625 378.277344 C 599.511719 377.851562 603.75 377.113281 608.746094 377.527344 C 614.664062 378.015625 622.710938 378.78125 627.921875 381.796875 C 632.773438 384.601562 635.960938 389.625 639.398438 394.363281 C 643.109375 399.480469 646.597656 406.101562 649.171875 411.628906 C 651.382812 416.390625 652.378906 420.71875 654.285156 425.40625 C 656.316406 430.425781 658.851562 435.425781 661.074219 440.796875 C 663.464844 446.566406 665.585938 453.164062 668.101562 458.933594 C 670.476562 464.386719 672.050781 470.714844 675.691406 474.5625 C 679.035156 478.09375 683.992188 481.175781 688.546875 481.703125 C 693.203125 482.242188 698.585938 479.234375 703.359375 477.480469 C 708.058594 475.753906 711.984375 473.730469 716.984375 471.292969 C 723.300781 468.210938 730.816406 464.136719 738.128906 460.253906 C 746.085938 456.03125 755.4375 450.996094 762.945312 446.851562 C 769.238281 443.371094 774.390625 440.414062 780.210938 437.09375 C 786.179688 433.6875 791.96875 430.304688 798.324219 426.660156 C 805.351562 422.625 813.082031 418.246094 820.550781 413.941406 C 828.164062 409.550781 835.835938 405.15625 843.5625 400.558594 C 851.503906 395.835938 859.484375 391.003906 867.5625 385.964844 C 875.910156 380.753906 884.4375 375.375 892.851562 369.765625 C 901.441406 364.042969 909.683594 357.691406 918.554688 351.9375 C 927.699219 346.011719 937.726562 340.695312 946.957031 334.769531 C 956.046875 328.933594 964.785156 322.941406 973.546875 316.679688 C 982.386719 310.359375 990.960938 303.425781 999.757812 296.992188 C 1008.511719 290.59375 1017.585938 284.65625 1026.179688 278.183594 C 1034.699219 271.761719 1042.703125 264.898438 1051.117188 258.324219 C 1059.621094 251.671875 1068.554688 245.144531 1076.949219 238.5 C 1085.113281 232.035156 1092.832031 225.503906 1100.84375 219.015625 C 1108.90625 212.484375 1117.238281 205.898438 1125.15625 199.433594 C 1132.808594 193.191406 1140.226562 187.164062 1147.582031 180.886719 C 1154.894531 174.644531 1161.683594 167.976562 1169.167969 161.886719 C 1176.765625 155.699219 1185.058594 149.796875 1192.859375 144.066406 C 1200.34375 138.5625 1207.621094 133.453125 1215.046875 128.128906 C 1222.515625 122.773438 1230.140625 117.433594 1237.546875 112.027344 C 1244.851562 106.6875 1251.863281 100.957031 1259.167969 95.902344 C 1266.316406 90.953125 1273.898438 86.519531 1280.902344 81.96875 C 1287.503906 77.675781 1293.800781 73.640625 1300.058594 69.359375 C 1306.214844 65.152344 1311.871094 60.644531 1318.164062 56.503906 C 1324.679688 52.222656 1331.511719 47.992188 1338.523438 44.121094 C 1345.671875 40.175781 1353.511719 36.839844 1360.671875 33.082031 C 1367.574219 29.460938 1374.007812 25.5 1380.757812 21.996094 C 1387.441406 18.53125 1394.046875 15.253906 1400.984375 12.164062 C 1408.109375 8.992188 1415.59375 6.128906 1422.988281 3.246094 C 1430.421875 0.351562 1437.996094 -2.496094 1445.453125 -5.167969 C 1452.773438 -7.792969 1460.167969 -10.191406 1467.328125 -12.652344 C 1474.246094 -15.03125 1480.546875 -17.414062 1487.707031 -19.703125 C 1495.566406 -22.214844 1504.453125 -24.480469 1512.609375 -27.023438 C 1520.550781 -29.496094 1528.3125 -32.210938 1536.023438 -34.734375 C 1543.539062 -37.183594 1551.023438 -39.546875 1558.289062 -41.953125 C 1565.28125 -44.273438 1572.082031 -46.710938 1578.824219 -48.921875 C 1585.320312 -51.050781 1591.539062 -53.210938 1598.023438 -55.011719 C 1604.566406 -56.828125 1611.667969 -58.042969 1617.921875 -59.746094 C 1623.585938 -61.28125 1628.835938 -62.941406 1633.980469 -64.664062 C 1638.832031 -66.285156 1643.300781 -68.160156 1647.984375 -69.757812 C 1652.617188 -71.339844 1656.816406 -72.765625 1661.910156 -74.199219 C 1667.960938 -75.898438 1677.808594 -77.863281 1681.964844 -79.101562 C 1683.878906 -79.671875 1684.824219 -79.957031 1686.097656 -80.566406 C 1687.296875 -81.140625 1688.226562 -82.132812 1689.414062 -82.621094 C 1690.597656 -83.109375 1691.933594 -83.421875 1693.214844 -83.503906 C 1694.496094 -83.585938 1695.855469 -83.460938 1697.101562 -83.128906 C 1698.34375 -82.800781 1699.597656 -82.246094 1700.667969 -81.539062 C 1701.742188 -80.835938 1702.746094 -79.90625 1703.535156 -78.890625 C 1704.324219 -77.878906 1704.976562 -76.679688 1705.402344 -75.464844 C 1705.828125 -74.25 1706.070312 -72.898438 1706.085938 -71.617188 C 1706.101562 -70.335938 1705.898438 -68.976562 1705.5 -67.753906 C 1705.101562 -66.53125 1704.480469 -65.316406 1703.714844 -64.289062 C 1702.949219 -63.253906 1701.96875 -62.300781 1700.917969 -61.566406 C 1699.859375 -60.832031 1698.621094 -60.246094 1697.390625 -59.886719 C 1696.15625 -59.527344 1694.796875 -59.363281 1693.515625 -59.414062 C 1692.234375 -59.46875 1690.898438 -59.746094 1689.699219 -60.203125 C 1688.496094 -60.660156 1687.3125 -61.359375 1686.324219 -62.175781 C 1685.332031 -62.992188 1684.433594 -64.027344 1683.757812 -65.121094 C 1683.082031 -66.21875 1682.566406 -67.476562 1682.273438 -68.730469 C 1681.980469 -69.984375 1681.890625 -71.347656 1682.011719 -72.621094 C 1682.128906 -73.90625 1682.484375 -75.234375 1683.007812 -76.402344 C 1683.53125 -77.574219 1684.289062 -78.710938 1685.160156 -79.65625 C 1686.03125 -80.601562 1687.117188 -81.441406 1688.242188 -82.058594 C 1689.367188 -82.671875 1690.65625 -83.121094 1691.925781 -83.347656 C 1693.183594 -83.574219 1694.558594 -83.585938 1695.824219 -83.398438 C 1697.09375 -83.210938 1698.398438 -82.785156 1699.539062 -82.199219 C 1700.675781 -81.613281 1701.789062 -80.796875 1702.679688 -79.875 C 1703.574219 -78.953125 1704.351562 -77.828125 1704.90625 -76.664062 C 1705.460938 -75.511719 1705.835938 -74.199219 1705.996094 -72.921875 C 1706.152344 -71.648438 1706.101562 -70.28125 1705.835938 -69.023438 C 1705.574219 -67.761719 1705.085938 -66.488281 1704.433594 -65.378906 C 1703.789062 -64.265625 1701.945312 -62.371094 1701.945312 -62.371094 C 1701.945312 -62.371094 1690.777344 -57.839844 1685.03125 -56.4375 C 1679.355469 -55.050781 1673.078125 -55.003906 1667.691406 -53.949219 C 1662.90625 -53.011719 1658.863281 -51.839844 1654.265625 -50.585938 C 1649.363281 -49.253906 1644.359375 -47.550781 1639.140625 -46.125 C 1633.597656 -44.609375 1627.792969 -43.125 1621.90625 -41.78125 C 1615.792969 -40.386719 1609.363281 -39.441406 1603.109375 -37.933594 C 1596.78125 -36.40625 1590.601562 -34.566406 1584.148438 -32.65625 C 1577.363281 -30.636719 1570.402344 -28.320312 1563.367188 -26.101562 C 1556.113281 -23.8125 1548.75 -21.570312 1541.265625 -19.109375 C 1533.488281 -16.550781 1525.515625 -13.65625 1517.550781 -11.011719 C 1509.511719 -8.332031 1501.003906 -5.65625 1493.257812 -3.140625 C 1486.140625 -0.832031 1479.675781 1.238281 1472.78125 3.503906 C 1465.726562 5.820312 1458.546875 8.078125 1451.386719 10.621094 C 1444.058594 13.214844 1436.566406 16.117188 1429.296875 18.9375 C 1422.15625 21.703125 1415.03125 24.425781 1408.15625 27.367188 C 1401.457031 30.234375 1395.128906 33.074219 1388.550781 36.335938 C 1381.671875 39.742188 1374.765625 43.875 1367.78125 47.453125 C 1360.808594 51.03125 1353.53125 54.128906 1346.675781 57.800781 C 1339.921875 61.425781 1333.402344 65.308594 1326.945312 69.324219 C 1320.503906 73.328125 1314.390625 77.796875 1307.96875 81.871094 C 1301.519531 85.957031 1294.988281 89.730469 1288.328125 93.796875 C 1281.421875 98.015625 1274.242188 102.015625 1267.261719 106.746094 C 1259.933594 111.71875 1252.785156 117.660156 1245.425781 123.039062 C 1238.015625 128.453125 1230.40625 133.792969 1222.964844 139.140625 C 1215.609375 144.425781 1208.378906 149.511719 1201.019531 154.925781 C 1193.453125 160.492188 1185.585938 166.058594 1178.167969 172.101562 C 1170.675781 178.207031 1163.691406 185.070312 1156.296875 191.398438 C 1148.894531 197.738281 1141.433594 203.820312 1133.773438 210.105469 C 1125.878906 216.585938 1117.636719 223.132812 1109.585938 229.695312 C 1101.523438 236.273438 1093.648438 242.96875 1085.445312 249.515625 C 1077.105469 256.175781 1068.390625 262.613281 1059.921875 269.300781 C 1051.410156 276.03125 1043.113281 283.199219 1034.519531 289.777344 C 1026 296.296875 1017.234375 302.136719 1008.585938 308.601562 C 999.75 315.210938 991.027344 322.417969 982.085938 329.011719 C 973.214844 335.550781 964.214844 341.925781 955.15625 348 C 946.214844 353.992188 936.878906 359.160156 928.101562 365.210938 C 919.363281 371.234375 911.078125 378.039062 902.625 384.203125 C 894.375 390.21875 886.050781 396.015625 877.980469 401.765625 C 870.179688 407.324219 862.515625 412.769531 854.984375 418.164062 C 847.695312 423.390625 840.578125 428.445312 833.496094 433.640625 C 826.484375 438.789062 819.316406 444.375 812.691406 449.175781 C 806.761719 453.480469 801.316406 457.164062 795.644531 461.191406 C 789.960938 465.234375 784.042969 469.703125 778.628906 473.386719 C 773.835938 476.640625 769.925781 479.109375 764.863281 482.257812 C 758.765625 486.046875 751.371094 490.46875 744.515625 494.453125 C 737.625 498.457031 730.085938 503.101562 723.636719 506.226562 C 718.378906 508.777344 714.203125 510.832031 708.890625 512.273438 C 703.085938 513.847656 696.128906 515.09375 690.046875 514.957031 C 684.300781 514.828125 678.292969 513.636719 673.335938 511.816406 C 668.894531 510.179688 665.28125 507.773438 661.476562 505.058594 C 657.421875 502.15625 653.199219 499.027344 649.816406 494.765625 C 645.953125 489.90625 643.066406 483.128906 640.191406 476.960938 C 637.265625 470.675781 634.933594 463.671875 632.460938 457.394531 C 630.164062 451.574219 628.003906 446.355469 625.84375 440.578125 C 623.574219 434.519531 621.007812 427.613281 619.171875 421.835938 C 617.617188 416.96875 618.351562 410.796875 615.335938 408.246094 C 612.253906 405.636719 605.566406 406.84375 600.621094 406.640625 C 595.640625 406.441406 590.714844 406.433594 585.578125 407.046875 C 580.074219 407.707031 574.710938 409.15625 568.640625 410.664062 C 561.472656 412.441406 553.238281 414.984375 545.355469 417.269531 C 537.210938 419.632812 527.640625 422.09375 520.539062 424.628906 C 515.003906 426.609375 510.9375 428.894531 506.054688 430.71875 C 501.210938 432.523438 496.238281 434.054688 491.371094 435.53125 C 486.613281 436.972656 481.828125 437.949219 477.1875 439.5 C 472.566406 441.050781 468.164062 442.875 463.589844 444.839844 C 458.804688 446.902344 453.996094 449.429688 449.101562 451.640625 C 444.121094 453.890625 439.484375 455.617188 433.941406 458.234375 C 426.988281 461.519531 418.753906 466.042969 410.761719 470.054688 C 402.246094 474.324219 391.433594 479.398438 384.324219 483.089844 C 379.433594 485.625 376.140625 487.46875 372.074219 489.765625 C 367.964844 492.082031 363.878906 494.535156 359.796875 496.921875 C 355.726562 499.296875 352.085938 501.226562 347.617188 504.039062 C 341.902344 507.636719 334.695312 512.84375 328.460938 516.988281 C 322.574219 520.914062 316.671875 524.601562 311.210938 528.308594 C 306.179688 531.71875 301.558594 534.621094 296.859375 538.371094 C 291.847656 542.371094 286.972656 547.824219 282.097656 551.714844 C 277.753906 555.179688 273.210938 557.40625 269.167969 560.789062 C 265.09375 564.195312 261.539062 568.296875 257.761719 572.101562 C 253.980469 575.910156 250.394531 579.675781 246.488281 583.628906 C 242.308594 587.851562 237.773438 592.265625 233.453125 596.664062 C 229.109375 601.085938 225 605.324219 220.515625 610.09375 C 215.527344 615.398438 210.023438 621.496094 204.898438 627.089844 C 199.921875 632.527344 194.871094 637.492188 190.207031 643.199219 C 185.386719 649.101562 180.984375 655.996094 176.476562 661.996094 C 172.261719 667.605469 167.953125 672.847656 164.015625 678.128906 C 160.304688 683.101562 156.765625 687.808594 153.457031 692.804688 C 150.179688 697.746094 147.570312 702.832031 144.238281 707.933594 C 140.691406 713.378906 136.207031 718.6875 132.726562 724.460938 C 129.210938 730.296875 126.277344 736.921875 123.285156 742.777344 C 120.539062 748.15625 117.996094 753.292969 115.449219 758.273438 C 113.0625 762.929688 111.039062 767.03125 108.464844 771.757812 C 105.546875 777.113281 101.476562 783.277344 98.753906 788.707031 C 96.367188 793.46875 94.320312 798.1875 92.796875 802.492188 C 91.515625 806.121094 90.765625 810.335938 89.933594 812.773438 C 89.460938 814.164062 89.183594 814.980469 88.628906 815.984375 C 88.074219 816.984375 87.367188 817.941406 86.585938 818.78125 C 85.808594 819.621094 84.898438 820.386719 83.941406 821.015625 C 82.980469 821.648438 81.90625 822.171875 80.828125 822.554688 C 79.746094 822.9375 78.585938 823.183594 77.445312 823.296875 C 76.304688 823.410156 75.113281 823.378906 73.980469 823.214844 C 72.847656 823.050781 71.699219 822.734375 70.636719 822.300781 C 69.578125 821.863281 68.542969 821.296875 67.613281 820.621094 C 66.683594 819.945312 65.8125 819.136719 65.070312 818.257812 C 64.328125 817.378906 63.683594 816.382812 63.171875 815.355469 C 62.664062 814.328125 62.273438 813.203125 62.023438 812.085938 C 61.777344 810.96875 61.664062 809.78125 61.695312 808.636719 C 61.726562 807.488281 62.199219 805.207031 62.199219 805.207031 " clip-rule="nonzero"/></clipPath></defs><rect x="-144" width="1728" fill="#ffffff" y="-80.999999" height="971.999992" fill-opacity="1"/><rect x="-144" width="1728" fill="#ffffff" y="-80.999999" height="971.999992" fill-opacity="1"/><rect x="-144" width="1728" fill="#ffffff" y="-80.999999" height="971.999992" fill-opacity="1"/><g clip-path="url(#5e6a58d8ed)"><g clip-path="url(#bbe9e01782)"><path fill="#ffbd59" d="M 58.695312 -86.503906 L 1709.445312 -86.503906 L 1709.445312 826.246094 L 58.695312 826.246094 Z M 58.695312 -86.503906 " fill-opacity="1" fill-rule="nonzero"/></g></g></svg>