<?xml version="1.0" encoding="utf-8"?>
<!-- Generator: Adobe Illustrator 23.0.3, SVG Export Plug-In . SVG Version: 6.00 Build 0)  -->
<svg version="1.1" id="Layer_1" xmlns="http://www.w3.org/2000/svg" xmlns:xlink="http://www.w3.org/1999/xlink" x="0px" y="0px"
	 viewBox="0 0 772.5 841.9" style="enable-background:new 0 0 772.5 841.9;" xml:space="preserve">
<style type="text/css">
	.st0{fill:#FFFFFF;}
	.st1{fill:#FDBC5A;}
	.st2{fill:#231F20;}
	.st3{font-family:'Poppins-Bold';}
	.st4{font-size:26px;}
	.st5{fill:none;stroke:#FDBC59;stroke-width:2;stroke-miterlimit:10;}
	.st6{fill:none;stroke:#FCBC79;stroke-miterlimit:10;}
	.st7{font-size:12px;}
	.st8{font-size:11px;}
	.st9{font-family:'Poppins-Regular';}
</style>
<title>cv</title>
<rect x="205" y="0" class="st0" width="390.3" height="841.9"/>
<rect y="0" class="st1" width="205" height="841.9"/>
<text transform="matrix(1 0 0 1 280.45 74.24)" class="st2 st3 st4">MARKÉTA HÁJKOVÁ</text>
<line class="st5" x1="306" y1="105" x2="517" y2="105"/>
<line class="st6" x1="772" y1="298" x2="772" y2="299"/>
<text transform="matrix(1 0 0 1 234.25 179.7)" class="st2 st3 st7">PRACOVNÍ ZKUŠENOSTI</text>
<text transform="matrix(1 0 0 1 234.25 207.3)" class="st2 st3 st8">2021 - současnost Virtual Lab, s. r. o.</text>
<text transform="matrix(1 0 0 1 234.25 236.1)" class="st2 st9 st7">• </text>
<text transform="matrix(1 0 0 1 242.4 236.1)" class="st2 st9 st8">tvorba webových stránek v softwaru Wordpress</text>
<text transform="matrix(1 0 0 1 234.25 249.3)" class="st2 st9 st8">• tvorba infografiky pro sociální sítě, prezentace, emailing </text>
<text transform="matrix(1 0 0 1 234.25 276.9)" class="st2 st3 st8">2021 - současnost Czechitas</text>
<text transform="matrix(1 0 0 1 234.25 305.7)" class="st2 st9 st7">•</text>
<text transform="matrix(1 0 0 1 239.2 305.7)" class="st2 st3 st7"> </text>
<text transform="matrix(1 0 0 1 241.74 305.7)" class="st2 st9 st8">kouč UX, HTML/CSS</text>
<text transform="matrix(1 0 0 1 234.25 333.3)" class="st2 st3 st8">2017 - 2019 Nemocnice České Budějovice, a. s.</text>
<text transform="matrix(1 0 0 1 489.78 333.3)" class="st2 st9 st8"> </text>
<text transform="matrix(1 0 0 1 234.25 362.1)" class="st2 st9 st7">•</text>
<text transform="matrix(1 0 0 1 239.2 362.1)" class="st2 st3 st7"> </text>
<text transform="matrix(1 0 0 1 241.74 362.1)" class="st2 st9 st8">laboratoř klinické chemie</text>
<text transform="matrix(1 0 0 1 234.25 390.9)" class="st2 st3 st7">VZDĚLÁNÍ</text>
<text transform="matrix(1 0 0 1 234.25 418.5)" class="st2 st3 st8">2021 Digitální akademie Web, Czechitas</text>
<text transform="matrix(1 0 0 1 234.25 447.3)" class="st2 st9 st7">• </text>
<text transform="matrix(1 0 0 1 242.4 447.3)" class="st2 st9 st8">tvorba webových stránek - HTML/CSS, JavaScript, React, GIT</text>
<text transform="matrix(1 0 0 1 234.25 473.7)" class="st2 st3 st8">2014 - 2017 Jihočeská univerzita v Českých Budějovicích</text>
<text transform="matrix(1 0 0 1 234.25 502.5)" class="st2 st9 st7">•</text>
<text transform="matrix(1 0 0 1 239.2 502.5)" class="st2 st3 st8"> </text>
<text transform="matrix(1 0 0 1 241.53 502.5)" class="st2 st9 st8">studium oboru zdravotní laborant, titul Bc.</text>
<text transform="matrix(1 0 0 1 21.31 181.64)" class="st2 st3 st7">KONTAKT</text>
<text transform="matrix(1 0 0 1 21.31 209.24)" class="st2 st9 st8">hajek.marketa@seznam.cz</text>
<text transform="matrix(1 0 0 1 21.31 238.04)" class="st2 st3 st7">KURZY</text>
<text transform="matrix(1 0 0 1 21.31 265.64)" class="st2 st3 st8">Google</text>
<text transform="matrix(1 0 0 1 21.31 280.04)" class="st2 st9 st7">• </text>
<text transform="matrix(1 0 0 1 29.46 280.04)" class="st2 st9 st8">Google UX Design</text>
<text transform="matrix(1 0 0 1 21.31 293.24)" class="st2 st9 st8">Professional Certificate </text>
<text transform="matrix(1 0 0 1 21.31 320.84)" class="st2 st3 st8">Udemy</text>
<text transform="matrix(1 0 0 1 21.31 335.24)" class="st2 st9 st7">• </text>
<text transform="matrix(1 0 0 1 29.46 335.24)" class="st2 st9 st8">Graphic Design Masterclass </text>
<text transform="matrix(1 0 0 1 21.31 348.44)" class="st2 st9 st8">   by Lindsay Marsh</text>
<text transform="matrix(1 0 0 1 21.31 377.24)" class="st2 st3 st7">DOVEDNOSTI</text>
<text transform="matrix(1 0 0 1 21.31 406.04)" class="st2 st9 st7">• </text>
<text transform="matrix(1 0 0 1 29.46 406.04)" class="st2 st9 st8">Adobe XD</text>
<text transform="matrix(1 0 0 1 21.31 419.24)" class="st2 st9 st8">• Figma</text>
<text transform="matrix(1 0 0 1 21.31 432.44)" class="st2 st9 st8">• Adobe Photoshop</text>
<text transform="matrix(1 0 0 1 21.31 445.64)" class="st2 st9 st8">• Adobe Illustrator</text>
<text transform="matrix(1 0 0 1 21.31 458.84)" class="st2 st9 st8">• Adobe Lightroom</text>
<text transform="matrix(1 0 0 1 21.31 472.04)" class="st2 st9 st8">• HTML/CSS</text>
<text transform="matrix(1 0 0 1 21.31 485.24)" class="st2 st9 st8">• JavaScript </text>
<text transform="matrix(1 0 0 1 21.31 498.44)" class="st2 st9 st8">• React </text>
<text transform="matrix(1 0 0 1 21.31 511.64)" class="st2 st9 st8">• GIT</text>
<text transform="matrix(1 0 0 1 21.31 524.84)" class="st2 st9 st8">• Wordpress</text>
<text transform="matrix(1 0 0 1 21.31 552.44)" class="st2 st3 st7">JAZYKOVÉ ZNALOSTI</text>
<text transform="matrix(1 0 0 1 21.31 581.24)" class="st2 st9 st7">• </text>
<text transform="matrix(1 0 0 1 29.46 581.24)" class="st2 st9 st8">anglický jazyk</text>
<text transform="matrix(1 0 0 1 21.31 594.44)" class="st2 st9 st8">• italský jazyk</text>
<text transform="matrix(1 0 0 1 21.31 607.64)" class="st2 st9 st8">• francouzský jazyk</text>
<text transform="matrix(1 0 0 1 21.31 620.84)" class="st2 st9 st8">• německý jazyk</text>
<text transform="matrix(1 0 0 1 21.31 649.64)" class="st2 st3 st7">OSTATNÍ</text>
<text transform="matrix(1 0 0 1 21.31 678.44)" class="st2 st9 st7">• </text>
<text transform="matrix(1 0 0 1 29.46 678.44)" class="st2 st9 st8">Znalost Microsoft Office</text>
<text transform="matrix(1 0 0 1 21.31 691.64)" class="st2 st9 st8">• Řidičský průkaz skupiny B</text>
<text transform="matrix(1 0 0 1 21.31 704.84)" class="st2 st9 st8"> - aktivní řidič</text>
<text transform="matrix(1 0 0 1 21.31 718.04)" class="st2 st9 st8">• Samostatnost</text>
</svg>
