<?xml version="1.0" encoding="utf-8"?>
<!-- Generator: Adobe Illustrator 23.0.3, SVG Export Plug-In . SVG Version: 6.00 Build 0)  -->
<svg version="1.1" id="Layer_1" xmlns="http://www.w3.org/2000/svg" xmlns:xlink="http://www.w3.org/1999/xlink" x="0px" y="0px"
	 viewBox="0 0 512 512" style="enable-background:new 0 0 512 512;" xml:space="preserve">
<style type="text/css">
	.st0{fill:#FCB74D;}
</style>
<g transform="translate(0.000000,512.000000) scale(0.100000,-0.100000)">
	<path class="st0" d="M585,5069c-265-41-482-232-561-494c-25-83-25-277,0-360c65-218,232-393,445-469c78-28,97-30,211-30
		c172,0,276,33,410,133c117,87,233,267,260,405c16,77,16,230,0,297c-18,80-82,206-141,277c-88,107-233,200-359,230
		C782,5075,653,5080,585,5069z M830,4883c144-40,265-151,330-303c35-82,40-243,11-338c-67-222-296-380-515-357
		c-179,19-320,100-406,234c-91,143-101,337-26,496C331,4842,579,4952,830,4883z"/>
	<path class="st0" d="M3639,3620c-249-24-491-130-662-290c-41-39-78-70-81-70s-6,33-6,73c0,86-18,127-73,171l-39,31h-482h-482
		l-41-27c-80-53-73,101-71-1730l3-1633l22-31c13-17,40-40,60-50c35-18,72-19,531-22c323-2,506,1,532,8c42,11,93,49,113,84
		c9,16,13,257,17,1021c5,978,6,1001,26,1056c108,295,403,411,686,268c71-36,155-116,183-174c49-105,48-85,54-1151l6-1001l28-36
		c57-75,37-72,563-72h470l36,24c19,13,46,40,59,59l24,36l3,1150c3,1194,1,1259-39,1416c-112,445-462,779-907,870
		C4054,3624,3780,3634,3639,3620z M4015,3450c246-22,440-109,615-277c151-143,246-316,297-538c17-75,18-151,18-1250V215h-420h-420
		l-5,985c-6,968-6,986-27,1062c-49,175-145,292-307,374c-369,189-786,9-922-396c-18-52-19-116-24-1040l-5-985l-468-3l-467-2v1580
		v1580h425h425l1-272v-273l202,206c228,232,252,252,371,313C3500,3444,3718,3477,4015,3450z"/>
	<path class="st0" d="M250,3527c-52-17-136-103-149-154c-8-29-10-488-9-1600l3-1558l30-45c43-63,104-106,170-120c37-8,174-10,422-8
		l368,3l55,31c62,35,114,96,130,152c6,25,10,543,10,1564c0,1501,0,1528-20,1581c-23,62-76,117-140,146c-43,20-63,21-440,20
		C420,3538,273,3534,250,3527z M1077,3346l28-24l3-1523c2-1691,8-1558-65-1579c-26-8-153-10-386-8l-349,3l-24,28l-24,28v1525v1525
		l25,24l24,25h370h370L1077,3346z"/>
</g>
</svg>
