<?xml version="1.0" encoding="UTF-8"?>
<svg id="Layer_1" data-name="Layer 1" xmlns="http://www.w3.org/2000/svg" viewBox="0 0 797.1 426.51">
  <defs>
    <style>
      .cls-1 {
        font-size: 20.22px;
      }

      .cls-1, .cls-2, .cls-3, .cls-4, .cls-5 {
        fill: #515151;
      }

      .cls-1, .cls-4 {
        font-family: LeagueSpartan-Regular, 'League Spartan';
        font-variation-settings: 'wght' 400;
      }

      .cls-2, .cls-3, .cls-6, .cls-7 {
        font-family: Poppins-Regular, Poppins;
      }

      .cls-2, .cls-6 {
        font-size: 16px;
      }

      .cls-8 {
        letter-spacing: 0em;
      }

      .cls-3, .cls-7 {
        font-size: 10.79px;
      }

      .cls-9 {
        fill: #0e688f;
      }

      .cls-6, .cls-7, .cls-10 {
        fill: #fff;
      }

      .cls-11 {
        fill: #db0f31;
      }

      .cls-4 {
        font-size: 101.12px;
      }

      .cls-12 {
        fill: #dbd216;
      }

      .cls-10 {
        stroke-width: .25px;
      }

      .cls-10, .cls-13 {
        stroke: #231f20;
        stroke-miterlimit: 10;
      }

      .cls-13 {
        fill: none;
        stroke-width: .75px;
      }
    </style>
  </defs>
  <g>
    <circle class="cls-12" cx="75" cy="75.13" r="75"/>
    <circle class="cls-10" cx="236.78" cy="75.13" r="75"/>
    <circle class="cls-9" cx="398.55" cy="75.13" r="75"/>
    <circle class="cls-11" cx="560.33" cy="75.13" r="75"/>
    <text class="cls-6" transform="translate(363.22 80.99)"><tspan x="0" y="0">#dbd216</tspan></text>
    <text class="cls-6" transform="translate(39.67 80.99)"><tspan x="0" y="0">#dbd216</tspan></text>
    <text class="cls-2" transform="translate(201.45 80.99)"><tspan x="0" y="0">#dbd216</tspan></text>
    <text class="cls-6" transform="translate(525 80.99)"><tspan x="0" y="0">#db0f31</tspan></text>
    <circle class="cls-5" cx="722.1" cy="75.13" r="75"/>
    <text class="cls-6" transform="translate(686.78 80.99)"><tspan x="0" y="0">#515151</tspan></text>
  </g>
  <g>
    <text class="cls-3" transform="translate(149.62 213.28)"><tspan x="0" y="0">Pole formuláře</tspan></text>
    <rect class="cls-11" x="11.05" y="188.32" width="112.22" height="42" rx="3" ry="3"/>
    <rect class="cls-13" x="134.29" y="188.32" width="217.56" height="42" rx="3" ry="3"/>
    <text class="cls-7" transform="translate(46.48 213.28)"><tspan x="0" y="0">Tlačítko</tspan></text>
  </g>
  <text class="cls-4" transform="translate(11.05 354.63)"><tspan x="0" y="0">Aa</tspan></text>
  <text class="cls-1" transform="translate(149.62 338.04)"><tspan x="0" y="0">League Spa</tspan><tspan class="cls-8" x="97.77" y="0">r</tspan><tspan x="104.97" y="0">tan Regular</tspan></text>
  <g>
    <path class="cls-11" d="m199.45,421.28h22.28v-20.85h-22.34c-.99,0-1.94.35-2.63.97-.7.62-1.09,1.45-1.1,2.33v19.2h0s0,.02,0,.02c0,1.92,1.71,3.55,3.73,3.55h22.34v-1.74h-22.34c-.92,0-1.76-.86-1.76-1.81s.84-1.67,1.82-1.67Zm15.88-19.1v9.39l-2.98-2.31-2.93,2.29v-9.37h5.9Zm-7.87-.02v11.73h1.95l2.96-2.32,2.99,2.32h1.95v-11.73h2.46v17.38h-18.19v-17.38s5.9,0,5.9,0Zm-8.07,0h.2v17.38s-.14,0-.14,0c-.64,0-1.27.15-1.82.43v-16.24c0-.41.18-.81.51-1.11.33-.29.78-.46,1.25-.46Z"/>
    <g>
      <path class="cls-11" d="m327.13,405.73v1.54h14.68v3.06l-1.71,5.44h-13.45l-1.93-13.91h-4.53v1.54h3.19l1.93,13.91h15.93l2.13-6.75v-4.84h-16.22Z"/>
      <path class="cls-11" d="m327.95,418.87c-.82,0-1.6.33-2.18.91-.58.58-.91,1.36-.91,2.18,0,.82.33,1.61.91,2.18.58.58,1.37.9,2.18.9s1.61-.33,2.18-.9c.58-.58.91-1.37.91-2.18,0-.82-.33-1.6-.91-2.18-.58-.58-1.36-.91-2.18-.91Zm0,4.63c-.31,0-.6-.09-.86-.26-.25-.17-.45-.41-.57-.69-.12-.28-.15-.59-.09-.89.06-.3.21-.57.42-.79.22-.22.49-.36.79-.42.3-.06.61-.03.89.09.28.12.52.31.69.57.17.25.26.55.26.86,0,.41-.16.8-.45,1.09-.29.29-.68.45-1.09.45Z"/>
      <path class="cls-11" d="m338.76,418.87c-.82,0-1.6.33-2.18.91-.58.58-.91,1.36-.91,2.18,0,.82.33,1.61.9,2.18.58.58,1.37.9,2.18.9s1.61-.33,2.18-.9c.58-.58.91-1.37.91-2.18,0-.82-.33-1.6-.91-2.18-.58-.58-1.36-.91-2.18-.91Zm0,4.63c-.31,0-.6-.09-.86-.26-.25-.17-.45-.41-.57-.69-.12-.28-.15-.59-.09-.89.06-.3.21-.57.42-.79.22-.22.49-.36.79-.42.3-.06.61-.03.89.09.28.12.52.31.69.57.17.25.26.55.26.86,0,.41-.16.8-.45,1.09-.29.29-.68.45-1.09.45Z"/>
    </g>
    <g>
      <path class="cls-11" d="m97.35,404.55h-4.78v-3.04h-1.74v3.04h-10.43v-3.04h-1.74v3.04h-4.78c-.35,0-.68.14-.92.38-.24.24-.38.58-.38.92v18.25c0,.35.14.68.38.92.24.24.58.38.92.38h23.46c.35,0,.68-.14.92-.38.24-.24.38-.58.38-.92v-18.25c0-.35-.14-.68-.38-.92-.24-.24-.58-.38-.92-.38Zm-.43,19.12h-22.59v-17.38h4.34v2.17h1.74v-2.17h10.43v2.17h1.74v-2.17h4.34v17.38Z"/>
      <path class="cls-11" d="m79.54,411.5h-1.74v1.74h1.74v-1.74Z"/>
      <path class="cls-11" d="m84.32,411.5h-1.74v1.74h1.74v-1.74Z"/>
      <path class="cls-11" d="m88.66,411.5h-1.74v1.74h1.74v-1.74Z"/>
      <path class="cls-11" d="m93.44,411.5h-1.74v1.74h1.74v-1.74Z"/>
      <path class="cls-11" d="m79.54,415.41h-1.74v1.74h1.74v-1.74Z"/>
      <path class="cls-11" d="m84.32,415.41h-1.74v1.74h1.74v-1.74Z"/>
      <path class="cls-11" d="m88.66,415.41h-1.74v1.74h1.74v-1.74Z"/>
      <path class="cls-11" d="m93.44,415.41h-1.74v1.74h1.74v-1.74Z"/>
      <path class="cls-11" d="m79.54,419.32h-1.74v1.74h1.74v-1.74Z"/>
      <path class="cls-11" d="m84.32,419.32h-1.74v1.74h1.74v-1.74Z"/>
      <path class="cls-11" d="m88.66,419.32h-1.74v1.74h1.74v-1.74Z"/>
      <path class="cls-11" d="m93.44,419.32h-1.74v1.74h1.74v-1.74Z"/>
    </g>
    <path class="cls-11" d="m36.52,411.03l-11.56-10.11c-.38-.33-.87-.51-1.38-.5-.51.01-1,.21-1.36.55l-10.63,10.1-.55.52v14.9h10.24v-9.29h5.59v9.29h10.24v-14.94l-.6-.53Zm-12.9-8.83s0,0,0,0c0,0-.02,0,0,0Zm11.64,22.53h-6.52v-7.52c0-.47-.2-.92-.55-1.25-.35-.33-.82-.52-1.32-.52h-5.59c-.49,0-.97.19-1.32.52-.35.33-.55.78-.55,1.25v7.52h-6.52v-12.39l10.71-10.1s0,0,0,0l11.63,10.11v12.39Z"/>
    <path class="cls-11" d="m389.69,407.39c.69,0,1.36-.2,1.93-.59.57-.38,1.02-.92,1.28-1.56.26-.64.33-1.33.2-2.01-.13-.67-.47-1.29-.95-1.78-.49-.49-1.11-.82-1.78-.95-.67-.13-1.37-.07-2.01.2-.64.26-1.18.71-1.56,1.28-.38.57-.59,1.24-.59,1.93,0,.92.37,1.81,1.02,2.46.65.65,1.54,1.02,2.46,1.02Zm0-5.21c.34,0,.68.1.97.29.29.19.51.46.64.78s.17.67.1,1c-.07.34-.23.65-.48.89-.24.24-.55.41-.89.48-.34.07-.69.03-1-.1-.32-.13-.59-.35-.78-.64-.19-.29-.29-.62-.29-.97,0-.46.18-.9.51-1.23s.77-.51,1.23-.51Z"/>
    <path class="cls-11" d="m389.69,419.55c-.69,0-1.36.2-1.93.59-.57.38-1.02.92-1.28,1.56-.26.64-.33,1.33-.2,2.01.13.67.47,1.29.95,1.78.49.49,1.11.82,1.78.95.67.13,1.37.07,2.01-.2.64-.26,1.18-.71,1.56-1.28.38-.57.59-1.24.59-1.93,0-.92-.37-1.8-1.02-2.46s-1.54-1.02-2.46-1.02Zm0,5.21c-.34,0-.68-.1-.97-.29-.29-.19-.51-.46-.64-.78-.13-.32-.17-.67-.1-1,.07-.34.23-.65.48-.89.24-.24.55-.41.89-.48.34-.07.69-.03,1,.1.32.13.59.35.78.64.19.29.29.62.29.97,0,.46-.18.9-.51,1.23-.33.33-.77.51-1.23.51Z"/>
    <path class="cls-11" d="m389.69,410c-.69,0-1.36.2-1.93.59-.57.38-1.02.92-1.28,1.56-.26.64-.33,1.33-.2,2.01.13.67.47,1.29.95,1.78.49.49,1.11.82,1.78.95.67.13,1.37.07,2.01-.2.64-.26,1.18-.71,1.56-1.28.38-.57.59-1.24.59-1.93,0-.92-.37-1.81-1.02-2.46s-1.54-1.02-2.46-1.02Zm0,5.21c-.34,0-.68-.1-.97-.29-.29-.19-.51-.46-.64-.78-.13-.32-.17-.67-.1-1,.07-.34.23-.65.48-.89.24-.24.55-.41.89-.48.34-.07.69-.03,1,.1.32.13.59.35.78.64.19.29.29.62.29.97,0,.46-.18.9-.51,1.23-.33.33-.77.51-1.23.51Z"/>
    <path class="cls-11" d="m279.52,412.13h-15.74l4.82-5.79c.23-.27.33-.62.3-.97-.03-.35-.2-.67-.47-.9-.27-.23-.62-.33-.97-.3-.35.03-.67.2-.9.47l-6.64,7.97c-.04.06-.08.13-.12.2,0,.07,0,.11-.09.17-.06.15-.09.31-.09.48,0,.16.03.33.09.48,0,.07,0,.11.09.17.03.07.07.14.12.2l6.64,7.97c.12.15.28.27.46.35.18.08.37.13.56.12.31,0,.61-.11.85-.31.13-.11.25-.25.33-.4.08-.15.13-.32.15-.5.02-.17,0-.35-.05-.52-.05-.17-.14-.32-.25-.46l-4.82-5.79h15.74c.35,0,.69-.14.94-.39.25-.25.39-.59.39-.94s-.14-.69-.39-.94c-.25-.25-.59-.39-.94-.39Z"/>
    <path class="cls-11" d="m157.79,403.87c-.64-.64-1.41-1.15-2.25-1.5-.84-.35-1.74-.53-2.65-.53-.91,0-1.81.18-2.65.53-.84.35-1.6.86-2.25,1.5l-.84.85-.83-.85h0c-.64-.65-1.41-1.16-2.25-1.51-.84-.35-1.74-.53-2.65-.53s-1.81.18-2.65.53c-.84.35-1.6.86-2.25,1.5l-.37.37c-1.3,1.3-2.03,3.06-2.03,4.9s.73,3.6,2.03,4.9l9.87,9.87,1.11,1.17.03-.03.03.03,1.04-1.1,9.93-9.93c1.3-1.3,2.03-3.06,2.03-4.9s-.73-3.6-2.03-4.9l-.37-.37Zm-.85,8.94l-9.78,9.78-9.78-9.78c-.97-.97-1.52-2.3-1.52-3.67s.55-2.7,1.52-3.67l.37-.37c.97-.97,2.29-1.52,3.67-1.52,1.38,0,2.7.55,3.67,1.52l2.06,2.1,2.07-2.1c.48-.48,1.05-.86,1.68-1.13.63-.26,1.31-.4,1.99-.4s1.36.13,1.99.4c.63.26,1.2.64,1.68,1.13l.37.37c.97.97,1.52,2.3,1.52,3.67s-.55,2.7-1.52,3.67Z"/>
  </g>
</svg>