<?xml version="1.0" encoding="UTF-8"?>
<svg id="Layer_1" data-name="Layer 1" xmlns="http://www.w3.org/2000/svg" viewBox="0 0 797.1 587.59">
  <defs>
    <style>
      .cls-1, .cls-2 {
        font-family: Poppins-Regular, Poppins;
        font-size: 16px;
      }

      .cls-1, .cls-3, .cls-4, .cls-5 {
        fill: #515151;
      }

      .cls-6 {
        letter-spacing: 0em;
      }

      .cls-7 {
        fill: #0e688f;
      }

      .cls-2, .cls-8 {
        fill: #fff;
      }

      .cls-9 {
        fill: #db0f31;
      }

      .cls-10 {
        fill: #dbd216;
      }

      .cls-4 {
        font-size: 150px;
      }

      .cls-4, .cls-5 {
        font-family: LeagueSpartan-Regular, 'League Spartan';
        font-variation-settings: 'wght' 400;
      }

      .cls-5 {
        font-size: 30px;
      }

      .cls-8 {
        stroke-width: .25px;
      }

      .cls-8, .cls-11 {
        stroke: #231f20;
        stroke-miterlimit: 10;
      }

      .cls-11 {
        fill: none;
        stroke-width: .75px;
      }
    </style>
  </defs>
  <g>
    <circle class="cls-10" cx="75" cy="75.13" r="75"/>
    <circle class="cls-8" cx="236.78" cy="75.13" r="75"/>
    <circle class="cls-7" cx="398.55" cy="75.13" r="75"/>
    <circle class="cls-9" cx="560.33" cy="75.13" r="75"/>
    <text class="cls-2" transform="translate(363.22 80.99)"><tspan x="0" y="0">#dbd216</tspan></text>
    <text class="cls-2" transform="translate(39.67 80.99)"><tspan x="0" y="0">#dbd216</tspan></text>
    <text class="cls-1" transform="translate(201.45 80.99)"><tspan x="0" y="0">#dbd216</tspan></text>
    <text class="cls-2" transform="translate(525 80.99)"><tspan x="0" y="0">#db0f31</tspan></text>
    <circle class="cls-3" cx="722.1" cy="75.13" r="75"/>
    <text class="cls-2" transform="translate(686.78 80.99)"><tspan x="0" y="0">#515151</tspan></text>
  </g>
  <g>
    <text class="cls-1" transform="translate(214.48 271.29)"><tspan x="0" y="0">Pole formuláře</tspan></text>
    <rect class="cls-9" x="8.95" y="234.28" width="166.47" height="62.3" rx="3" ry="3"/>
    <rect class="cls-11" x="191.75" y="234.28" width="322.72" height="62.3" rx="3" ry="3"/>
    <text class="cls-2" transform="translate(61.5 271.29)"><tspan x="0" y="0">Tlačítko</tspan></text>
  </g>
  <text class="cls-4" transform="translate(8.95 480.97)"><tspan x="0" y="0">Aa</tspan></text>
  <text class="cls-5" transform="translate(214.48 433.64)"><tspan x="0" y="0">League Spa</tspan><tspan class="cls-6" x="145.03" y="0">r</tspan><tspan x="155.71" y="0">tan Regular</tspan></text>
  <g>
    <path class="cls-9" d="m288.4,579.83h33.04v-30.93h-33.14c-1.47,0-2.87.52-3.91,1.44-1.04.92-1.62,2.16-1.63,3.45v28.48h0s0,.02,0,.04c0,2.85,2.53,5.26,5.53,5.26h33.14v-2.58h-33.14c-1.37,0-2.61-1.28-2.61-2.68s1.24-2.47,2.71-2.47Zm23.56-28.33v13.92l-4.41-3.42-4.34,3.4v-13.9h8.76Zm-11.67-.03v17.4h2.89l4.38-3.44,4.43,3.44h2.89v-17.4h3.65v25.78h-26.99v-25.78s8.75,0,8.75,0Zm-11.98,0h.3v25.78s-.21,0-.21,0c-.95,0-1.88.22-2.71.64v-24.08c0-.61.27-1.21.76-1.64.49-.44,1.16-.68,1.85-.69Z"/>
    <g>
      <path class="cls-9" d="m477.79,556.76v2.29h21.77v4.54l-2.54,8.07h-19.95l-2.86-20.63h-6.73v2.29h4.73l2.86,20.63h23.63l3.15-10.01v-7.18h-24.06Z"/>
      <path class="cls-9" d="m479.01,576.26c-1.22,0-2.38.48-3.24,1.34-.86.86-1.34,2.02-1.34,3.24,0,1.22.48,2.38,1.34,3.24.86.86,2.03,1.34,3.24,1.34s2.38-.48,3.24-1.34c.86-.86,1.34-2.03,1.34-3.24,0-1.22-.48-2.38-1.34-3.24-.86-.86-2.02-1.34-3.24-1.34Zm0,6.87c-.45,0-.9-.13-1.27-.39-.38-.25-.67-.61-.84-1.03-.17-.42-.22-.88-.13-1.32.09-.44.31-.85.63-1.17.32-.32.73-.54,1.17-.63.44-.09.91-.04,1.32.13.42.17.78.47,1.03.84.25.38.39.82.39,1.27,0,.61-.24,1.19-.67,1.62-.43.43-1.01.67-1.62.67Z"/>
      <path class="cls-9" d="m495.05,576.26c-1.22,0-2.38.48-3.24,1.34-.86.86-1.34,2.02-1.34,3.24,0,1.22.48,2.38,1.34,3.24.86.86,2.03,1.34,3.24,1.34s2.38-.48,3.24-1.34c.86-.86,1.34-2.03,1.34-3.24,0-1.22-.48-2.38-1.34-3.24-.86-.86-2.02-1.34-3.24-1.34Zm0,6.87c-.45,0-.9-.13-1.27-.39-.38-.25-.67-.61-.84-1.03-.17-.42-.22-.88-.13-1.32.09-.44.31-.85.63-1.17.32-.32.73-.54,1.17-.63.44-.09.91-.04,1.32.13.42.17.78.47,1.03.84.25.38.39.82.39,1.27,0,.61-.24,1.19-.67,1.62-.43.43-1.01.67-1.62.67Z"/>
    </g>
    <g>
      <path class="cls-9" d="m136.96,555.02h-7.09v-4.51h-2.58v4.51h-15.47v-4.51h-2.58v4.51h-7.09c-.51,0-1,.2-1.37.57-.36.36-.57.85-.57,1.37v27.07c0,.51.2,1,.57,1.37.36.36.85.57,1.37.57h34.8c.51,0,1-.2,1.37-.57.36-.36.57-.85.57-1.37v-27.07c0-.51-.2-1-.57-1.37-.36-.36-.85-.57-1.37-.57Zm-.64,28.36h-33.51v-25.78h6.44v3.22h2.58v-3.22h15.47v3.22h2.58v-3.22h6.44v25.78Z"/>
      <path class="cls-9" d="m110.53,565.33h-2.58v2.58h2.58v-2.58Z"/>
      <path class="cls-9" d="m117.62,565.33h-2.58v2.58h2.58v-2.58Z"/>
      <path class="cls-9" d="m124.07,565.33h-2.58v2.58h2.58v-2.58Z"/>
      <path class="cls-9" d="m131.16,565.33h-2.58v2.58h2.58v-2.58Z"/>
      <path class="cls-9" d="m110.53,571.13h-2.58v2.58h2.58v-2.58Z"/>
      <path class="cls-9" d="m117.62,571.13h-2.58v2.58h2.58v-2.58Z"/>
      <path class="cls-9" d="m124.07,571.13h-2.58v2.58h2.58v-2.58Z"/>
      <path class="cls-9" d="m131.16,571.13h-2.58v2.58h2.58v-2.58Z"/>
      <path class="cls-9" d="m110.53,576.93h-2.58v2.58h2.58v-2.58Z"/>
      <path class="cls-9" d="m117.62,576.93h-2.58v2.58h2.58v-2.58Z"/>
      <path class="cls-9" d="m124.07,576.93h-2.58v2.58h2.58v-2.58Z"/>
      <path class="cls-9" d="m131.16,576.93h-2.58v2.58h2.58v-2.58Z"/>
    </g>
    <path class="cls-9" d="m46.72,564.63l-17.14-14.99c-.56-.49-1.29-.75-2.05-.74-.76.01-1.48.31-2.01.82l-15.76,14.99-.81.77v22.09h15.19v-13.79h8.29v13.79h15.19v-22.16l-.89-.78Zm-19.13-13.1s0,0,0,.01c-.01,0-.02-.01,0-.01Zm17.26,33.42h-9.67v-11.16c0-.7-.29-1.36-.81-1.86-.52-.49-1.22-.77-1.95-.77h-8.29c-.73,0-1.44.28-1.95.77-.52.49-.81,1.16-.81,1.86v11.16h-9.67v-18.38l15.88-14.99s0,0,0,0l17.26,14.99v18.38Z"/>
    <path class="cls-9" d="m570.6,559.23c1.02,0,2.02-.3,2.86-.87.85-.57,1.51-1.37,1.9-2.31.39-.94.49-1.98.29-2.98-.2-1-.69-1.92-1.41-2.64-.72-.72-1.64-1.21-2.64-1.41-1-.2-2.04-.1-2.98.29-.94.39-1.75,1.05-2.31,1.9-.57.85-.87,1.84-.87,2.86,0,1.37.55,2.68,1.51,3.64.97.97,2.28,1.51,3.64,1.51Zm0-7.73c.51,0,1.01.15,1.43.43.42.28.75.69.95,1.16s.25.99.15,1.49c-.1.5-.34.96-.71,1.32-.36.36-.82.61-1.32.71-.5.1-1.02.05-1.49-.15-.47-.2-.87-.53-1.16-.95-.28-.42-.43-.92-.43-1.43,0-.68.27-1.34.76-1.82s1.14-.76,1.82-.76Z"/>
    <path class="cls-9" d="m570.6,577.28c-1.02,0-2.02.3-2.86.87-.85.57-1.51,1.37-1.9,2.31-.39.94-.49,1.98-.29,2.98.2,1,.69,1.92,1.41,2.64.72.72,1.64,1.21,2.64,1.41,1,.2,2.04.1,2.98-.29.94-.39,1.75-1.05,2.31-1.9.57-.85.87-1.84.87-2.86,0-1.37-.55-2.68-1.51-3.64s-2.28-1.51-3.64-1.51Zm0,7.73c-.51,0-1.01-.15-1.43-.43-.42-.28-.75-.69-.95-1.16-.2-.47-.25-.99-.15-1.49.1-.5.34-.96.71-1.32.36-.36.82-.61,1.32-.71.5-.1,1.02-.05,1.49.15.47.2.87.53,1.16.95.28.42.43.92.43,1.43,0,.68-.27,1.34-.76,1.82-.48.48-1.14.76-1.82.76Z"/>
    <path class="cls-9" d="m570.6,563.1c-1.02,0-2.02.3-2.86.87-.85.57-1.51,1.37-1.9,2.31-.39.94-.49,1.98-.29,2.98.2,1,.69,1.92,1.41,2.64.72.72,1.64,1.21,2.64,1.41,1,.2,2.04.1,2.98-.29.94-.39,1.75-1.05,2.31-1.9.57-.85.87-1.84.87-2.86,0-1.37-.55-2.68-1.51-3.64s-2.28-1.51-3.64-1.51Zm0,7.73c-.51,0-1.01-.15-1.43-.43-.42-.28-.75-.69-.95-1.16-.2-.47-.25-.99-.15-1.49.1-.5.34-.96.71-1.32.36-.36.82-.61,1.32-.71.5-.1,1.02-.05,1.49.15.47.2.87.53,1.16.95.28.42.43.92.43,1.43,0,.68-.27,1.34-.76,1.82-.48.48-1.14.76-1.82.76Z"/>
    <path class="cls-9" d="m407.17,566.26h-23.36l7.15-8.59c.33-.4.49-.92.45-1.44-.05-.52-.3-1-.7-1.34-.4-.33-.92-.5-1.44-.45-.52.05-1,.3-1.34.7l-9.85,11.82c-.07.09-.13.19-.18.3,0,.1,0,.16-.14.26-.09.23-.14.47-.14.71,0,.24.05.48.14.71,0,.1,0,.16.14.26.05.1.11.2.18.3l9.85,11.82c.19.22.42.4.68.52.26.12.55.19.84.19.46,0,.91-.16,1.26-.45.2-.17.36-.37.49-.6.12-.23.2-.48.22-.74.02-.26,0-.52-.08-.77-.08-.25-.2-.48-.37-.68l-7.15-8.59h23.36c.52,0,1.02-.21,1.39-.58.37-.37.58-.87.58-1.39s-.21-1.02-.58-1.39c-.37-.37-.87-.58-1.39-.58Z"/>
    <path class="cls-9" d="m226.61,554.01c-.95-.95-2.09-1.71-3.33-2.23-1.25-.52-2.58-.78-3.93-.78-1.35,0-2.69.27-3.93.78-1.25.52-2.38,1.27-3.33,2.23l-1.24,1.26-1.23-1.26h0c-.95-.96-2.09-1.72-3.33-2.23-1.25-.52-2.58-.78-3.93-.78s-2.68.27-3.93.78c-1.25.52-2.38,1.27-3.33,2.23l-.55.55c-1.93,1.93-3.01,4.54-3.01,7.26s1.08,5.34,3.01,7.26l14.64,14.64,1.65,1.73.04-.04.04.04,1.55-1.63,14.74-14.74c1.92-1.93,3-4.54,3-7.26s-1.08-5.34-3-7.26l-.55-.55Zm-1.26,13.27l-14.51,14.51-14.51-14.51c-1.44-1.44-2.26-3.4-2.26-5.45s.81-4,2.26-5.45l.55-.55c1.44-1.44,3.4-2.26,5.44-2.26,2.04,0,4,.81,5.45,2.25l3.06,3.11,3.07-3.11c.72-.72,1.56-1.28,2.5-1.67.93-.39,1.94-.59,2.95-.59s2.01.2,2.95.59c.93.39,1.78.95,2.5,1.67l.55.55c1.44,1.45,2.25,3.41,2.25,5.45s-.81,4-2.25,5.45Z"/>
  </g>
</svg>